REM DIRINDEX 1\6,1\2\7,1\2\8,1\2\9,1\3\10,1\3\11,1\4\12,1\4\13,1\4\14,1\5\15,1\5\16,1\5\17
REM DIRNAME folder01,folder02,folder03,folder04,folder05,folder06,folder07,folder08,folder09,folder10,folder11,folder12,folder13,folder14,folder15,folder16,folder17
TITLE ""
FILE "P2Q_t2_0704-0721.mp3" MP3
  TRACK 01 AUDIO
    TITLE "7:cjc040_5943"
    INDEX 01 00:00:00
  TRACK 02 AUDIO
    TITLE "0:"
    INDEX 01 00:01:19
  TRACK 03 AUDIO
    TITLE "8:cjc040_5944"
    INDEX 01 00:02:06
  TRACK 04 AUDIO
    TITLE "0:"
    INDEX 01 00:03:25
  TRACK 05 AUDIO
    TITLE "9:cjc040_5945"
    INDEX 01 00:04:01
  TRACK 06 AUDIO
    TITLE "0:"
    INDEX 01 00:05:28
  TRACK 07 AUDIO
    TITLE "7:cjc040_5946"
    INDEX 01 00:07:09
  TRACK 08 AUDIO
    TITLE "0:"
    INDEX 01 00:08:34
  TRACK 09 AUDIO
    TITLE "8:cjc040_5947"
    INDEX 01 00:09:12
  TRACK 10 AUDIO
    TITLE "0:"
    INDEX 01 00:11:31
  TRACK 11 AUDIO
    TITLE "9:cjc040_5948"
    INDEX 01 00:12:07
  TRACK 12 AUDIO
    TITLE "0:"
    INDEX 01 00:13:32
  TRACK 13 AUDIO
    TITLE "7:cjc040_5949"
    INDEX 01 00:15:13
  TRACK 14 AUDIO
    TITLE "0:"
    INDEX 01 00:16:34
  TRACK 15 AUDIO
    TITLE "8:cjc040_5950"
    INDEX 01 00:17:08
  TRACK 16 AUDIO
    TITLE "0:"
    INDEX 01 00:19:44
  TRACK 17 AUDIO
    TITLE "9:cjc040_5951"
    INDEX 01 00:20:20
  TRACK 18 AUDIO
    TITLE "0:"
    INDEX 01 00:21:37
  TRACK 19 AUDIO
    TITLE "7:cjc040_5952"
    INDEX 01 00:23:20
  TRACK 20 AUDIO
    TITLE "0:"
    INDEX 01 00:24:43
  TRACK 21 AUDIO
    TITLE "8:cjc040_5953"
    INDEX 01 00:25:25
  TRACK 22 AUDIO
    TITLE "0:"
    INDEX 01 00:26:64
  TRACK 23 AUDIO
    TITLE "9:cjc040_5954"
    INDEX 01 00:27:41
  TRACK 24 AUDIO
    TITLE "0:"
    INDEX 01 00:28:70
  TRACK 25 AUDIO
    TITLE "7:cjc040_5955"
    INDEX 01 00:30:54
  TRACK 26 AUDIO
    TITLE "0:"
    INDEX 01 00:31:67
  TRACK 27 AUDIO
    TITLE "8:cjc040_5956"
    INDEX 01 00:32:52
  TRACK 28 AUDIO
    TITLE "0:"
    INDEX 01 00:34:67
  TRACK 29 AUDIO
    TITLE "9:cjc040_5957"
    INDEX 01 00:35:45
  TRACK 30 AUDIO
    TITLE "0:"
    INDEX 01 00:36:64
  TRACK 31 AUDIO
    TITLE "7:cjc040_5958"
    INDEX 01 00:38:41
  TRACK 32 AUDIO
    TITLE "0:"
    INDEX 01 00:39:68
  TRACK 33 AUDIO
    TITLE "8:cjc040_5959"
    INDEX 01 00:40:48
  TRACK 34 AUDIO
    TITLE "0:"
    INDEX 01 00:43:07
  TRACK 35 AUDIO
    TITLE "9:cjc040_5960"
    INDEX 01 00:43:60
  TRACK 36 AUDIO
    TITLE "0:"
    INDEX 01 00:45:16
  TRACK 37 AUDIO
    TITLE "7:cjc040_5961"
    INDEX 01 00:46:64
  TRACK 38 AUDIO
    TITLE "0:"
    INDEX 01 00:48:22
  TRACK 39 AUDIO
    TITLE "8:cjc040_5962"
    INDEX 01 00:49:04
  TRACK 40 AUDIO
    TITLE "0:"
    INDEX 01 00:51:62
  TRACK 41 AUDIO
    TITLE "9:cjc040_5963"
    INDEX 01 00:52:45
  TRACK 42 AUDIO
    TITLE "0:"
    INDEX 01 00:54:07
  TRACK 43 AUDIO
    TITLE "7:cjc040_5964"
    INDEX 01 00:55:61
  TRACK 44 AUDIO
    TITLE "0:"
    INDEX 01 00:57:17
  TRACK 45 AUDIO
    TITLE "8:cjc040_5965"
    INDEX 01 00:57:70
  TRACK 46 AUDIO
    TITLE "0:"
    INDEX 01 01:00:19
  TRACK 47 AUDIO
    TITLE "9:cjc040_5966"
    INDEX 01 01:00:72
  TRACK 48 AUDIO
    TITLE "0:"
    INDEX 01 01:02:26
  TRACK 49 AUDIO
    TITLE "7:cjc040_5967"
    INDEX 01 01:04:07
  TRACK 50 AUDIO
    TITLE "0:"
    INDEX 01 01:05:34
  TRACK 51 AUDIO
    TITLE "8:cjc040_5968"
    INDEX 01 01:06:12
  TRACK 52 AUDIO
    TITLE "0:"
    INDEX 01 01:09:28
  TRACK 53 AUDIO
    TITLE "9:cjc040_5969"
    INDEX 01 01:10:06
  TRACK 54 AUDIO
    TITLE "0:"
    INDEX 01 01:11:41
  TRACK 55 AUDIO
    TITLE "7:cjc040_5970"
    INDEX 01 01:13:22
  TRACK 56 AUDIO
    TITLE "0:"
    INDEX 01 01:14:47
  TRACK 57 AUDIO
    TITLE "8:cjc040_5971"
    INDEX 01 01:15:33
  TRACK 58 AUDIO
    TITLE "0:"
    INDEX 01 01:17:55
  TRACK 59 AUDIO
    TITLE "9:cjc040_5972"
    INDEX 01 01:18:33
  TRACK 60 AUDIO
    TITLE "0:"
    INDEX 01 01:19:58
  TRACK 61 AUDIO
    TITLE "7:cjc040_5973"
    INDEX 01 01:21:43
  TRACK 62 AUDIO
    TITLE "0:"
    INDEX 01 01:22:56
  TRACK 63 AUDIO
    TITLE "8:cjc040_5974"
    INDEX 01 01:23:38
  TRACK 64 AUDIO
    TITLE "0:"
    INDEX 01 01:25:41
  TRACK 65 AUDIO
    TITLE "9:cjc040_5975"
    INDEX 01 01:26:19
  TRACK 66 AUDIO
    TITLE "0:"
    INDEX 01 01:27:40
  TRACK 67 AUDIO
    TITLE "7:cjc040_5976"
    INDEX 01 01:29:13
  TRACK 68 AUDIO
    TITLE "0:"
    INDEX 01 01:30:40
  TRACK 69 AUDIO
    TITLE "8:cjc040_5977"
    INDEX 01 01:31:22
  TRACK 70 AUDIO
    TITLE "0:"
    INDEX 01 01:32:35
  TRACK 71 AUDIO
    TITLE "9:cjc040_5978"
    INDEX 01 01:33:13
  TRACK 72 AUDIO
    TITLE "0:"
    INDEX 01 01:34:40
  TRACK 73 AUDIO
    TITLE "7:cjc040_5979"
    INDEX 01 01:36:27
  TRACK 74 AUDIO
    TITLE "0:"
    INDEX 01 01:37:73
  TRACK 75 AUDIO
    TITLE "8:cjc040_5980"
    INDEX 01 01:38:57
  TRACK 76 AUDIO
    TITLE "0:"
    INDEX 01 01:41:34
  TRACK 77 AUDIO
    TITLE "9:cjc040_5981"
    INDEX 01 01:42:14
  TRACK 78 AUDIO
    TITLE "0:"
    INDEX 01 01:43:68
  TRACK 79 AUDIO
    TITLE "7:cjc040_5982"
    INDEX 01 01:45:51
  TRACK 80 AUDIO
    TITLE "0:"
    INDEX 01 01:46:70
  TRACK 81 AUDIO
    TITLE "8:cjc040_5983"
    INDEX 01 01:47:48
  TRACK 82 AUDIO
    TITLE "0:"
    INDEX 01 01:48:65
  TRACK 83 AUDIO
    TITLE "9:cjc040_5984"
    INDEX 01 01:49:43
  TRACK 84 AUDIO
    TITLE "0:"
    INDEX 01 01:50:68
  TRACK 85 AUDIO
    TITLE "7:cjc040_5985"
    INDEX 01 01:52:53
  TRACK 86 AUDIO
    TITLE "0:"
    INDEX 01 01:53:74
  TRACK 87 AUDIO
    TITLE "8:cjc040_5986"
    INDEX 01 01:54:52
  TRACK 88 AUDIO
    TITLE "0:"
    INDEX 01 01:59:50
  TRACK 89 AUDIO
    TITLE "9:cjc040_5987"
    INDEX 01 02:00:22
  TRACK 90 AUDIO
    TITLE "0:"
    INDEX 01 02:01:41
  TRACK 91 AUDIO
    TITLE "7:cjc040_5988"
    INDEX 01 02:03:20
  TRACK 92 AUDIO
    TITLE "0:"
    INDEX 01 02:04:49
  TRACK 93 AUDIO
    TITLE "8:cjc040_5989"
    INDEX 01 02:05:27
  TRACK 94 AUDIO
    TITLE "0:"
    INDEX 01 02:06:73
  TRACK 95 AUDIO
    TITLE "9:cjc040_5990"
    INDEX 01 02:07:49
  TRACK 96 AUDIO
    TITLE "0:"
    INDEX 01 02:09:01
  TRACK 97 AUDIO
    TITLE "7:cjc040_5991"
    INDEX 01 02:10:73
  TRACK 98 AUDIO
    TITLE "0:"
    INDEX 01 02:12:23
  TRACK 99 AUDIO
    TITLE "8:cjc040_5992"
    INDEX 01 02:12:74
  TRACK 100 AUDIO
    TITLE "0:"
    INDEX 01 02:15:07
  TRACK 101 AUDIO
    TITLE "9:cjc040_5993"
    INDEX 01 02:15:58
  TRACK 102 AUDIO
    TITLE "0:"
    INDEX 01 02:17:10
  TRACK 103 AUDIO
    TITLE "7:cjc040_5994"
    INDEX 01 02:18:66
  TRACK 104 AUDIO
    TITLE "0:"
    INDEX 01 02:20:32
  TRACK 105 AUDIO
    TITLE "8:cjc040_5995"
    INDEX 01 02:21:14
  TRACK 106 AUDIO
    TITLE "0:"
    INDEX 01 02:22:23
  TRACK 107 AUDIO
    TITLE "9:cjc040_5996"
    INDEX 01 02:23:03
  TRACK 108 AUDIO
    TITLE "0:"
    INDEX 01 02:24:44
